<svg width="32" height="32" viewBox="0 0 32 32" fill="none" xmlns="http://www.w3.org/2000/svg">
<path d="M12.5798 20.1264L12.5737 20.1325L12.5678 20.1388C12.4909 20.2212 12.3653 20.2733 12.2266 20.2733C12.0988 20.2733 11.9748 20.2277 11.8735 20.1264C11.6821 19.935 11.6821 19.6116 11.8735 19.4202L19.4202 11.8735C19.6116 11.6821 19.935 11.6821 20.1264 11.8735C20.3178 12.0649 20.3178 12.3884 20.1264 12.5798L12.5798 20.1264Z" stroke="#797979"/>
<path d="M19.7733 20.7733C19.52 20.7733 19.2666 20.68 19.0666 20.48L11.52 12.9333C11.1333 12.5466 11.1333 11.9066 11.52 11.52C11.9066 11.1333 12.5466 11.1333 12.9333 11.52L20.48 19.0666C20.8666 19.4533 20.8666 20.0933 20.48 20.48C20.28 20.68 20.0266 20.7733 19.7733 20.7733Z" fill="#797979"/>
<path d="M20.0001 30.3334H12.0001C4.76008 30.3334 1.66675 27.2401 1.66675 20.0001V12.0001C1.66675 4.76008 4.76008 1.66675 12.0001 1.66675H20.0001C27.2401 1.66675 30.3334 4.76008 30.3334 12.0001V20.0001C30.3334 27.2401 27.2401 30.3334 20.0001 30.3334ZM12.0001 3.66675C5.85341 3.66675 3.66675 5.85341 3.66675 12.0001V20.0001C3.66675 26.1467 5.85341 28.3334 12.0001 28.3334H20.0001C26.1467 28.3334 28.3334 26.1467 28.3334 20.0001V12.0001C28.3334 5.85341 26.1467 3.66675 20.0001 3.66675H12.0001Z" fill="#797979"/>
</svg>
