<svg width="41" height="40" viewBox="0 0 41 40" fill="none" xmlns="http://www.w3.org/2000/svg">
<path d="M36.7277 18.8713V10.9283C36.7277 9.81338 35.8207 8.90628 34.7056 8.90628H31.3059C29.9003 8.90628 28.5375 8.40608 27.4687 7.49778C25.5729 5.88706 23.1573 5 20.6666 5C18.1759 5 15.7604 5.88706 13.8646 7.49778C12.7957 8.40608 11.4329 8.90628 10.0274 8.90628H6.62761C5.51267 8.90628 4.60556 9.81331 4.60556 10.9283V18.8713C3.43163 19.7264 2.66663 21.1106 2.66663 22.6709V33.6421C2.66663 34.3318 3.22772 34.8929 3.91742 34.8929H5.11941C5.80917 34.8929 6.37027 34.3318 6.37027 33.6421V32.6266C6.37027 32.0776 6.81689 31.631 7.36582 31.631H33.9676C34.5165 31.631 34.963 32.0776 34.963 32.6265V33.6421C34.963 34.3318 35.5241 34.8929 36.2138 34.8929H37.4158C38.1055 34.8929 38.6666 34.3318 38.6666 33.6421V22.6709C38.6666 21.1106 37.9016 19.7264 36.7277 18.8713ZM5.66025 10.9283C5.66025 10.3949 6.09422 9.96097 6.62761 9.96097H10.0274C11.6829 9.96097 13.2882 9.37161 14.5475 8.30152C16.2528 6.85259 18.4259 6.05469 20.6666 6.05469C22.9073 6.05469 25.0804 6.85266 26.7857 8.30159C28.0451 9.37168 29.6504 9.96104 31.3059 9.96104H34.7056C35.239 9.96104 35.673 10.3949 35.673 10.9283V18.2936C35.1439 18.0867 34.569 17.9718 33.9675 17.9718H32.1638V13.9049C32.1638 13.1117 31.5184 12.4663 30.7253 12.4663H24.3497C23.5565 12.4663 22.9111 13.1117 22.9111 13.9049V14.5137C22.9111 14.805 23.1471 15.041 23.4384 15.041C23.7297 15.041 23.9658 14.805 23.9658 14.5137V13.9049C23.9658 13.6932 24.138 13.521 24.3497 13.521H30.7253C30.9369 13.521 31.1091 13.6932 31.1091 13.9049V17.9718H23.9658V16.9791C23.9658 16.6878 23.7297 16.4517 23.4384 16.4517C23.1471 16.4517 22.9111 16.6878 22.9111 16.9791V17.9718H18.4222V13.9049C18.4222 13.1117 17.7768 12.4663 16.9836 12.4663H10.608C9.81481 12.4663 9.16948 13.1117 9.16948 13.9049V17.9718H7.36575C6.76423 17.9718 6.18935 18.0866 5.66025 18.2936V10.9283ZM10.2242 17.9718V13.9049C10.2242 13.6932 10.3964 13.521 10.608 13.521H16.9836C17.1953 13.521 17.3675 13.6932 17.3675 13.9049V17.9718H10.2242ZM37.4158 33.8382H36.2138C36.1057 33.8382 36.0177 33.7503 36.0177 33.6421V32.6265C36.0177 31.496 35.098 30.5763 33.9676 30.5763H7.36582C6.23534 30.5763 5.31558 31.4961 5.31558 32.6266V33.6421C5.31558 33.7503 5.22755 33.8382 5.11941 33.8382H3.91742C3.80927 33.8382 3.72131 33.7503 3.72131 33.6421V27.092H5.33266C5.62397 27.092 5.86001 26.8559 5.86001 26.5646C5.86001 26.2733 5.62397 26.0373 5.33266 26.0373H3.72131V22.6709C3.72131 20.6614 5.35622 19.0265 7.36575 19.0265H33.9675C35.977 19.0265 37.6119 20.6614 37.6119 22.6709V26.0373H7.81118C7.51988 26.0373 7.28384 26.2733 7.28384 26.5646C7.28384 26.8559 7.51988 27.092 7.81118 27.092H37.6119V33.6421C37.6119 33.7503 37.524 33.8382 37.4158 33.8382Z" fill="#3498DB"/>
</svg>
