<svg width="17" height="16" viewBox="0 0 17 16" fill="none" xmlns="http://www.w3.org/2000/svg">
<path d="M13.18 2.32043C11.8867 1.0271 10.62 0.993764 9.29334 2.32043L8.48668 3.1271C8.42001 3.19376 8.39334 3.30043 8.42001 3.39376C8.92668 5.16043 10.34 6.57376 12.1067 7.08043C12.1333 7.0871 12.16 7.09376 12.1867 7.09376C12.26 7.09376 12.3267 7.0671 12.38 7.01376L13.18 6.2071C13.84 5.55376 14.16 4.92043 14.16 4.28043C14.1667 3.62043 13.8467 2.98043 13.18 2.32043Z" fill="#E3EFFB"/>
<path d="M10.9067 7.68654C10.7133 7.5932 10.5267 7.49987 10.3467 7.3932C10.2 7.30654 10.06 7.2132 9.92001 7.1132C9.80668 7.03987 9.67334 6.9332 9.54667 6.82654C9.53334 6.81987 9.48667 6.77987 9.43334 6.72654C9.21334 6.53987 8.96668 6.29987 8.74668 6.0332C8.72668 6.01987 8.69334 5.9732 8.64668 5.9132C8.58001 5.8332 8.46668 5.69987 8.36668 5.54654C8.28668 5.44654 8.19334 5.29987 8.10668 5.1532C8.00001 4.9732 7.90668 4.7932 7.81334 4.60654C7.69097 4.34431 7.3468 4.26641 7.14218 4.47103L3.39334 8.21987C3.30668 8.30654 3.22668 8.4732 3.20668 8.58654L2.84668 11.1399C2.78001 11.5932 2.90668 12.0199 3.18668 12.3065C3.42668 12.5399 3.76001 12.6665 4.12001 12.6665C4.20001 12.6665 4.28001 12.6599 4.36001 12.6465L6.92001 12.2865C7.04001 12.2665 7.20668 12.1865 7.28668 12.0999L11.0417 8.34484C11.2422 8.14432 11.1669 7.79929 10.9067 7.68654Z" fill="white"/>
</svg>
