<svg width="20" height="21" viewBox="0 0 20 21" fill="none" xmlns="http://www.w3.org/2000/svg">
<path d="M14.1667 17.8009H5.83332C4.4074 17.8009 3.3507 17.3925 2.65042 16.6922C1.95014 15.9919 1.54166 14.9352 1.54166 13.5093V7.67594C1.54166 6.25002 1.95014 5.19332 2.65042 4.49304C3.3507 3.79276 4.4074 3.38428 5.83332 3.38428H14.1667C15.5926 3.38428 16.6493 3.79276 17.3496 4.49304C18.0498 5.19332 18.4583 6.25002 18.4583 7.67594V13.5093C18.4583 14.9352 18.0498 15.9919 17.3496 16.6922C16.6493 17.3925 15.5926 17.8009 14.1667 17.8009ZM5.83332 3.63428C4.56817 3.63428 3.5313 3.94169 2.81519 4.65781C2.09907 5.37392 1.79166 6.41079 1.79166 7.67594V13.5093C1.79166 14.7744 2.09907 15.8113 2.81519 16.5274C3.5313 17.2435 4.56817 17.5509 5.83332 17.5509H14.1667C15.4318 17.5509 16.4687 17.2435 17.1848 16.5274C17.9009 15.8113 18.2083 14.7744 18.2083 13.5093V7.67594C18.2083 6.41079 17.9009 5.37392 17.1848 4.65781C16.4687 3.94169 15.4318 3.63428 14.1667 3.63428H5.83332Z" stroke="#797979"/>
<path d="M9.99982 11.3175C9.29982 11.3175 8.59149 11.1008 8.04983 10.6592L5.44149 8.57584C5.17482 8.35917 5.12483 7.9675 5.34149 7.70084C5.55816 7.43417 5.94983 7.38417 6.2165 7.60084L8.82482 9.68417C9.45816 10.1925 10.5332 10.1925 11.1665 9.68417L13.7748 7.60084C14.0415 7.38417 14.4415 7.42584 14.6498 7.70084C14.8665 7.9675 14.8248 8.36751 14.5498 8.57584L11.9415 10.6592C11.4082 11.1008 10.6998 11.3175 9.99982 11.3175Z" fill="#797979"/>
</svg>
