<svg width="24" height="25" viewBox="0 0 24 25" fill="none" xmlns="http://www.w3.org/2000/svg">
<path d="M21.9999 12.5926C21.9999 17.584 18.3429 21.7211 13.5624 22.4711V15.4832H15.8925L16.3359 12.5926H13.5624V10.7168C13.5624 9.92582 13.9499 9.15512 15.1921 9.15512H16.4531V6.69419C16.4531 6.69419 15.3085 6.49888 14.2144 6.49888C11.9304 6.49888 10.4375 7.88325 10.4375 10.3895V12.5926H7.89841V15.4832H10.4375V22.4711C5.65701 21.7211 2 17.584 2 12.5926C2 7.06997 6.47732 2.59265 12 2.59265C17.5226 2.59265 21.9999 7.06997 21.9999 12.5926Z" fill="#1877F2"/>
<path d="M15.8925 15.4832L16.3359 12.5926H13.5625V10.7168C13.5625 9.92599 13.9499 9.15514 15.1921 9.15514H16.4531V6.69421C16.4531 6.69421 15.3087 6.4989 14.2146 6.4989C11.9304 6.4989 10.4375 7.88327 10.4375 10.3895V12.5926H7.89844V15.4832H10.4375V22.4711C10.9466 22.5509 11.4684 22.5926 12 22.5926C12.5315 22.5926 13.0533 22.5509 13.5625 22.4711V15.4832H15.8925Z" fill="white"/>
</svg>
