<svg width="33" height="33" viewBox="0 0 33 33" fill="none" xmlns="http://www.w3.org/2000/svg">
<path d="M25.6267 30.3333H6.96002C4.545 30.3333 3.50041 29.6672 3.00554 28.8978C2.4743 28.0719 2.46002 26.9815 2.46002 25.8333V24.5C2.46002 23.4961 3.2895 22.6667 4.29336 22.6667H28.2934C29.2972 22.6667 30.1267 23.4961 30.1267 24.5V25.8333C30.1267 26.9815 30.1124 28.0719 29.5812 28.8978C29.0863 29.6672 28.0417 30.3333 25.6267 30.3333ZM4.29336 23.6667C3.83055 23.6667 3.46002 24.0372 3.46002 24.5V25.8333L3.46002 25.8577C3.46001 26.3847 3.46 26.8711 3.51059 27.2852C3.56246 27.7099 3.67347 28.1211 3.94205 28.4625C4.2166 28.8115 4.60729 29.0271 5.09905 29.1558C5.58234 29.2823 6.19481 29.3333 6.96002 29.3333H25.6267C26.3919 29.3333 27.0044 29.2823 27.4877 29.1558C27.9794 29.0271 28.3701 28.8115 28.6447 28.4625C28.9132 28.1211 29.0243 27.7099 29.0761 27.2852C29.1267 26.8711 29.1267 26.3847 29.1267 25.8577V25.8333V24.5C29.1267 24.0372 28.7562 23.6667 28.2934 23.6667H4.29336Z" fill="#0ACF83" stroke="#0ACF83"/>
<path d="M13.0106 6.9224L13.0106 6.92242L13.0143 6.92161C13.7662 6.75593 14.5568 6.66666 15.36 6.66666H17.2934C18.1102 6.66666 18.9008 6.756 19.6524 6.92162L19.6549 6.92215C24.7572 8.01915 28.46 12.615 28.46 17.8333V23.1667C28.46 23.4415 28.2395 23.6667 27.96 23.6667H4.69336C4.42284 23.6667 4.19336 23.4372 4.19336 23.1667V17.8333C4.19336 12.6019 7.90903 8.00649 13.0106 6.9224ZM5.19336 22.1667V22.6667H5.69336H26.96H27.46V22.1667V17.8333C27.46 13.0786 24.0968 8.90228 19.4411 7.89173C18.7474 7.73617 18.0308 7.66666 17.2934 7.66666H15.36C14.6358 7.66666 13.9195 7.73619 13.2263 7.89157C8.5701 8.88855 5.19336 13.0652 5.19336 17.8333V22.1667Z" fill="#0ACF83" stroke="#0ACF83"/>
<path d="M12.6424 7.54176L12.6421 7.54036C12.5471 7.19614 12.5001 6.85417 12.5001 6.49999C12.5001 4.38947 14.2229 2.66666 16.3334 2.66666C18.4439 2.66666 20.1667 4.38947 20.1667 6.49999C20.1667 6.85417 20.1197 7.19614 20.0247 7.54036L20.0247 7.54035L20.0232 7.54608C19.9578 7.79468 19.7117 7.9526 19.4432 7.89218L19.4429 7.89213C18.7487 7.73628 18.0315 7.66666 17.2934 7.66666H15.3601C14.637 7.66666 13.9219 7.73596 13.2298 7.8908C13.1652 7.90366 13.1438 7.90666 13.1201 7.90666C12.9008 7.90666 12.7019 7.75969 12.6424 7.54176ZM18.5932 6.74302L19.2145 6.81833L19.1508 6.19579C19.0045 4.76569 17.7882 3.66666 16.3334 3.66666C14.874 3.66666 13.6781 4.76934 13.5166 6.1902L13.4454 6.81693L14.0718 6.74323C14.5065 6.69209 14.927 6.66666 15.3601 6.66666H17.2934C17.728 6.66666 18.1745 6.69227 18.5932 6.74302Z" fill="#0ACF83" stroke="#0ACF83"/>
<path d="M20.3334 15.6667H12.3334C12.0628 15.6667 11.8334 15.4372 11.8334 15.1667C11.8334 14.8961 12.0628 14.6667 12.3334 14.6667H20.3334C20.6039 14.6667 20.8334 14.8961 20.8334 15.1667C20.8334 15.4372 20.6039 15.6667 20.3334 15.6667Z" fill="#0ACF83" stroke="#0ACF83"/>
</svg>
