<svg width="20" height="20" viewBox="0 0 20 20" fill="none" xmlns="http://www.w3.org/2000/svg">
<path d="M7.36544 8.93335L7.41565 8.93512L7.45654 8.9283C7.45701 8.92827 7.45753 8.92824 7.45809 8.92821C7.46578 8.92779 7.47796 8.92741 7.49447 8.92741C7.52764 8.92741 7.56898 8.92893 7.61133 8.93219L7.64195 8.93454L7.67262 8.93313C9.57448 8.8458 11.065 7.28319 11.0747 5.36952H11.0747V5.36699C11.0747 3.39918 9.46749 1.79199 7.49968 1.79199C5.53187 1.79199 3.92468 3.39918 3.92468 5.36699C3.92468 7.30321 5.43823 8.86556 7.36544 8.93335ZM7.63302 9.18366H7.63287H7.63272H7.63258H7.63243H7.63229H7.63214H7.632H7.63185H7.63171H7.63156H7.63142H7.63127H7.63113H7.63098H7.63084H7.6307H7.63055H7.63041H7.63027H7.63012H7.62998H7.62984H7.6297H7.62955H7.62941H7.62927H7.62913H7.62899H7.62885H7.6287H7.62856H7.62842H7.62828H7.62814H7.628H7.62786H7.62772H7.62758H7.62744H7.6273H7.62716H7.62702H7.62688H7.62674H7.62661H7.62647H7.62633H7.62619H7.62605H7.62591H7.62578H7.62564H7.6255H7.62536H7.62523H7.62509H7.62495H7.62482H7.62468H7.62454H7.62441H7.62427H7.62414H7.624H7.62386H7.62373H7.62359H7.62346H7.62332H7.62319H7.62305H7.62292H7.62278H7.62265H7.62251H7.62238H7.62225H7.62211H7.62198H7.62184H7.62171H7.62158H7.62144H7.62131H7.62118H7.62104H7.62091H7.62078H7.62065H7.62051H7.62038H7.62025H7.62012H7.61999H7.61985H7.61972H7.61959H7.61946H7.61933H7.6192H7.61907H7.61894H7.6188H7.61867H7.61854H7.61841H7.61828H7.61815H7.61802H7.61789H7.61776H7.61763H7.6175H7.61737H7.61724H7.61711H7.61698H7.61685H7.61673H7.6166H7.61647H7.61634H7.61621H7.61608H7.61595H7.61582H7.6157H7.61557H7.61544H7.61531H7.61518H7.61506H7.61493H7.6148H7.61467H7.61455H7.61442H7.61429H7.61416H7.61404H7.61391H7.61378H7.61366H7.61353H7.6134H7.61328H7.61315H7.61302H7.6129H7.61277H7.61264H7.61252H7.61239H7.61227H7.61214H7.61201H7.61189H7.61176H7.61164H7.61151H7.61139H7.61126H7.61114H7.61101H7.61088H7.61076H7.61063H7.61051H7.61038H7.61026H7.61014H7.61001H7.60989H7.60976H7.60964H7.60951H7.60939H7.60926H7.60914H7.60901H7.60889H7.60877H7.60864H7.60852H7.60839H7.60827H7.60815H7.60802H7.6079H7.60778H7.60765H7.60753H7.6074H7.60728H7.60716H7.60703H7.60691H7.60679H7.60666H7.60654H7.60642H7.60629H7.60617H7.60605H7.60592H7.6058H7.60568H7.60556H7.60543H7.60531H7.60519H7.60506H7.60494H7.60482H7.6047H7.60457H7.60445H7.60433H7.60421H7.60408H7.60396H7.60384H7.60372H7.60359H7.60347H7.60335H7.60323H7.6031H7.60302C7.53201 9.17522 7.45965 9.1758 7.39351 9.18254C5.26301 9.09714 3.67468 7.42318 3.67468 5.36699C3.67468 3.2598 5.39249 1.54199 7.49968 1.54199C9.60655 1.54199 11.3242 3.25928 11.3247 5.36603C11.3169 7.43865 9.69858 9.11344 7.64972 9.18366H7.64971H7.64967H7.64962H7.64957H7.64952H7.64947H7.64942H7.64937H7.64932H7.64928H7.64923H7.64918H7.64913H7.64908H7.64903H7.64898H7.64893H7.64889H7.64884H7.64879H7.64874H7.64869H7.64864H7.64859H7.64854H7.64849H7.64845H7.6484H7.64835H7.6483H7.64825H7.6482H7.64815H7.6481H7.64806H7.64801H7.64796H7.64791H7.64786H7.64781H7.64776H7.64771H7.64766H7.64762H7.64757H7.64752H7.64747H7.64742H7.64737H7.64732H7.64727H7.64722H7.64718H7.64713H7.64708H7.64703H7.64698H7.64693H7.64688H7.64683H7.64679H7.64674H7.64669H7.64664H7.64659H7.64654H7.64649H7.64644H7.64639H7.64635H7.6463H7.64625H7.6462H7.64615H7.6461H7.64605H7.646H7.64596H7.64591H7.64586H7.64581H7.64576H7.64571H7.64566H7.64561H7.64557H7.64552H7.64547H7.64542H7.64537H7.64532H7.64527H7.64522H7.64517H7.64513H7.64508H7.64503H7.64498H7.64493H7.64488H7.64483H7.64478H7.64473H7.64469H7.64464H7.64459H7.64454H7.64449H7.64444H7.64439H7.64434H7.6443H7.64425H7.6442H7.64415H7.6441H7.64405H7.644H7.64395H7.6439H7.64386H7.64381H7.64376H7.64371H7.64366H7.64361H7.64356H7.64351H7.64347H7.64342H7.64337H7.64332H7.64327H7.64322H7.64317H7.64312H7.64307H7.64303H7.64298H7.64293H7.64288H7.64283H7.64278H7.64273H7.64268H7.64264H7.64259H7.64254H7.64249H7.64244H7.64239H7.64234H7.64229H7.64224H7.6422H7.64215H7.6421H7.64205H7.642H7.64195H7.6419H7.64185H7.64181H7.64176H7.64171H7.64166H7.64161H7.64156H7.64151H7.64146H7.64141H7.64137H7.64132H7.64127H7.64122H7.64117H7.64112H7.64107H7.64102H7.64097H7.64093H7.64088H7.64083H7.64078H7.64073H7.64068H7.64063H7.64058H7.64054H7.64049H7.64044H7.64039H7.64034H7.64029H7.64024H7.64019H7.64014H7.6401H7.64005H7.64H7.63995H7.6399H7.63985H7.6398H7.63975H7.63971H7.63966H7.63961H7.63956H7.63951H7.63946H7.63941H7.63936H7.63931H7.63927H7.63922H7.63917H7.63912H7.63907H7.63902H7.63897H7.63892H7.63888H7.63883H7.63878H7.63873H7.63868H7.63863H7.63858H7.63853H7.63848H7.63844H7.63839H7.63834H7.63829H7.63824H7.63819H7.63814H7.63809H7.63805H7.638H7.63795H7.6379H7.63785H7.6378H7.63775H7.6377H7.63765H7.63761H7.63756H7.63751H7.63746H7.63741H7.63736H7.63731H7.63726H7.63722H7.63717H7.63712H7.63707H7.63702H7.63697H7.63692H7.63687H7.63682H7.63678H7.63673H7.63668H7.63663H7.63658H7.63653H7.63648H7.63643H7.63639H7.63634H7.63629H7.63624H7.63619H7.63614H7.63609H7.63604H7.63599H7.63595H7.6359H7.63585H7.6358H7.63575H7.6357H7.63565H7.6356H7.63556H7.63551H7.63546H7.63541H7.63536H7.63531H7.63526H7.63521H7.63516H7.63512H7.63507H7.63502H7.63497H7.63492H7.63487H7.63482H7.63477H7.63473H7.63468H7.63463H7.63458H7.63453H7.63448H7.63443H7.63438H7.63433H7.63429H7.63424H7.63419H7.63414H7.63409H7.63404H7.63399H7.63394H7.63389H7.63385H7.6338H7.63375H7.6337H7.63365H7.6336H7.63355H7.6335H7.63346H7.63341H7.63336H7.63331H7.63326H7.63321H7.63316H7.63311H7.63306H7.63302Z" stroke="#797979"/>
<path d="M13.783 9.79134C13.758 9.79134 13.733 9.79134 13.708 9.78301C13.3663 9.81634 13.0163 9.57468 12.983 9.23301C12.9496 8.89134 13.158 8.58301 13.4996 8.54134C13.5996 8.53301 13.708 8.53301 13.7996 8.53301C15.0163 8.46634 15.9663 7.46634 15.9663 6.24134C15.9663 4.97467 14.9413 3.94967 13.6746 3.94967C13.333 3.95801 13.0496 3.67467 13.0496 3.33301C13.0496 2.99134 13.333 2.70801 13.6746 2.70801C15.6246 2.70801 17.2163 4.29967 17.2163 6.24967C17.2163 8.16634 15.7163 9.71634 13.808 9.79134C13.7996 9.79134 13.7913 9.79134 13.783 9.79134Z" fill="#797979"/>
<path d="M7.64134 18.7913C6.00801 18.7913 4.36634 18.3747 3.12467 17.5413C1.96634 16.7747 1.33301 15.7247 1.33301 14.583C1.33301 13.4413 1.96634 12.383 3.12467 11.608C5.62467 9.94967 9.67467 9.94967 12.158 11.608C13.308 12.3747 13.9497 13.4247 13.9497 14.5663C13.9497 15.708 13.3163 16.7663 12.158 17.5413C10.908 18.3747 9.27467 18.7913 7.64134 18.7913ZM3.81634 12.658C3.01634 13.1913 2.58301 13.8747 2.58301 14.5913C2.58301 15.2997 3.02467 15.983 3.81634 16.508C5.89134 17.8997 9.39134 17.8997 11.4663 16.508C12.2663 15.9747 12.6997 15.2913 12.6997 14.5747C12.6997 13.8663 12.258 13.183 11.4663 12.658C9.39134 11.2747 5.89134 11.2747 3.81634 12.658Z" fill="#797979"/>
<path d="M15.283 17.2917C14.9913 17.2917 14.733 17.0917 14.6746 16.7917C14.608 16.45 14.8246 16.125 15.158 16.05C15.683 15.9417 16.1663 15.7333 16.5413 15.4417C17.0163 15.0833 17.2746 14.6333 17.2746 14.1583C17.2746 13.6833 17.0163 13.2333 16.5496 12.8833C16.183 12.6 15.7246 12.4 15.183 12.275C14.8496 12.2 14.633 11.8667 14.708 11.525C14.783 11.1917 15.1163 10.975 15.458 11.05C16.1746 11.2083 16.7996 11.4917 17.308 11.8833C18.083 12.4667 18.5246 13.2917 18.5246 14.1583C18.5246 15.025 18.0746 15.85 17.2996 16.4417C16.783 16.8417 16.133 17.1333 15.4163 17.275C15.3663 17.2917 15.3246 17.2917 15.283 17.2917Z" fill="#797979"/>
</svg>
