<svg width="41" height="40" viewBox="0 0 41 40" fill="none" xmlns="http://www.w3.org/2000/svg">
<path d="M38.1204 14.8362L36.4165 13.1323C36.6712 13.0428 36.9103 12.8965 37.1136 12.6932L38.0591 11.7477C38.4113 11.3955 38.6053 10.9272 38.6053 10.429C38.6053 9.93074 38.4113 9.4624 38.0595 9.11059L36.1283 7.17446L36.7022 6.60057C37.0544 6.24834 37.2483 5.78 37.2483 5.28179C37.2483 4.78357 37.0543 4.31523 36.7022 3.96301C35.9758 3.23672 34.794 3.23672 34.0676 3.96301L33.4955 4.53514L31.5632 2.59794C30.8369 1.87158 29.6551 1.87151 28.9287 2.59794L27.9832 3.54343C27.7796 3.74705 27.6292 3.98964 27.5383 4.25422L25.8289 2.54474C25.1025 1.81845 23.9208 1.81838 23.1944 2.54474L22.2489 3.49023C21.8967 3.84246 21.7027 4.3108 21.7027 4.80901C21.7027 5.30722 21.8967 5.77557 22.2489 6.12779L27.0758 10.9547L11.6213 26.4092L9.4612 24.2491C9.25547 24.0433 8.92219 24.0437 8.71695 24.2499C8.51163 24.456 8.51199 24.79 8.71772 24.9957L11.2493 27.5273L11.2495 27.5276L12.2432 28.5212L18.3408 34.6188C18.4937 34.7717 18.5779 34.9749 18.5779 35.191C18.5779 35.4071 18.4937 35.6103 18.3408 35.7632L17.3953 36.7087C17.0789 37.0251 16.564 37.025 16.2478 36.7087L10.0883 30.5493C10.0883 30.5493 6.78652 27.2427 6.75157 27.2126L3.95623 24.4172C3.8033 24.2643 3.71906 24.0611 3.71906 23.845C3.71906 23.6289 3.8033 23.4257 3.95623 23.2728L4.90172 22.3273C5.21813 22.0109 5.73288 22.011 6.04922 22.3273L7.17225 23.4503C7.37792 23.6561 7.7112 23.6556 7.91651 23.4495C8.12182 23.2434 8.12147 22.9095 7.91574 22.7037L6.7927 21.5807C6.06631 20.8544 4.88449 20.8544 4.15824 21.5807L3.21281 22.5262C2.86062 22.8785 2.66663 23.3468 2.66663 23.845C2.66663 24.3432 2.86062 24.8116 3.21281 25.1638L4.9167 26.8677C4.66195 26.9572 4.42289 27.1035 4.21962 27.3069L3.27413 28.2524C2.92193 28.6046 2.72794 29.0729 2.72794 29.5711C2.72794 30.0694 2.92193 30.5377 3.2737 30.8895L5.20491 32.8256L4.63102 33.3995C4.27882 33.7517 4.0849 34.22 4.0849 34.7182C4.0849 35.2165 4.27889 35.6849 4.63109 36.037C4.99425 36.4002 5.47118 36.5818 5.94832 36.5818C6.42532 36.5818 6.90246 36.4002 7.26556 36.0371L7.83769 35.465L9.77002 37.4022C10.1332 37.7654 10.6101 37.9469 11.0873 37.9469C11.5643 37.9469 12.0414 37.7653 12.4045 37.4022L13.35 36.4567C13.5536 36.253 13.7039 36.0105 13.7948 35.7459L15.5042 37.4553C15.8674 37.8184 16.3444 38 16.8214 38C17.2985 38 17.7755 37.8184 18.1387 37.4553L19.0842 36.5098C19.4364 36.1576 19.6304 35.6892 19.6304 35.191C19.6304 34.6928 19.4364 34.2245 19.0842 33.8722L14.2572 29.0453L29.7118 13.5909L31.351 15.23C31.5566 15.4358 31.8898 15.4354 32.0952 15.2292C32.3005 15.0231 32.3002 14.6892 32.0944 14.4834L30.0841 12.4732C30.0839 12.473 30.0837 12.4727 30.0835 12.4725L28.1925 10.5815L28.1922 10.5813L22.9924 5.38121C22.8395 5.22831 22.7553 5.02511 22.7553 4.80901C22.7553 4.59291 22.8395 4.38971 22.9924 4.23681L23.9379 3.29133C24.2543 2.9749 24.7691 2.97497 25.0854 3.29133L31.2449 9.4507L34.4792 12.6931C34.5123 12.7263 34.5467 12.7574 34.5816 12.7875L37.377 15.5828C37.5299 15.7357 37.6141 15.9389 37.6141 16.155C37.6141 16.3711 37.5299 16.5743 37.377 16.7272L36.4315 17.6728C36.1151 17.9892 35.6004 17.9891 35.284 17.6728L33.8789 16.2677C33.6732 16.062 33.34 16.0623 33.1346 16.2685C32.9293 16.4747 32.9297 16.8086 33.1354 17.0143L34.5405 18.4194C34.9036 18.7826 35.3807 18.9641 35.8577 18.9641C36.3347 18.9641 36.8118 18.7826 37.1749 18.4194L38.1204 17.4739C38.4726 17.1217 38.6666 16.6534 38.6666 16.1551C38.6666 15.6568 38.4726 15.1884 38.1204 14.8362ZM6.52207 35.2904C6.20567 35.6068 5.69084 35.6067 5.37457 35.2904C5.22171 35.1375 5.13748 34.9343 5.13748 34.7182C5.13748 34.5021 5.22171 34.2989 5.37457 34.146L5.94902 33.5715L6.603 34.2271L7.09357 34.7189L6.52207 35.2904ZM12.6066 35.7101L11.6611 36.6556C11.3447 36.9719 10.8299 36.9719 10.514 36.6561L8.21049 34.3468L8.21041 34.3467L6.32175 32.4533C6.32175 32.4533 6.32161 32.4531 6.32147 32.4531L4.01761 30.1434C3.86468 29.9905 3.78045 29.7873 3.78045 29.5712C3.78045 29.3551 3.86468 29.1519 4.01761 28.999L4.9631 28.0535C5.12138 27.8952 5.32922 27.8161 5.53706 27.8161C5.71538 27.8161 5.89348 27.8748 6.04029 27.9912L9.36537 31.3163L12.6066 34.5657C12.7594 34.7186 12.8437 34.9218 12.8437 35.1378C12.8437 35.3539 12.7594 35.5572 12.6066 35.7101ZM28.2574 12.1363L28.9669 12.8458L13.5123 28.3002L12.3664 27.1543L27.8209 11.6998L28.2574 12.1363ZM34.8112 4.70966C35.1275 4.39323 35.6423 4.3933 35.9587 4.70966C36.1115 4.86256 36.1958 5.06576 36.1958 5.28186C36.1958 5.49796 36.1115 5.70116 35.9587 5.85406L35.3842 6.42851L34.2397 5.28116L34.8112 4.70966ZM35.293 12.0088L31.9747 8.69052L28.7267 5.43433C28.5738 5.28144 28.4895 5.07823 28.4895 4.86214C28.4895 4.64604 28.5738 4.44284 28.7267 4.28994L29.6722 3.34445C29.8305 3.1862 30.0383 3.10708 30.2461 3.10708C30.4538 3.10708 30.6614 3.18606 30.8193 3.34396L37.3156 9.85668C37.4686 10.0096 37.5528 10.2128 37.5528 10.4289C37.5528 10.645 37.4686 10.8482 37.3156 11.0011L36.3701 11.9466C36.076 12.2406 35.6108 12.261 35.293 12.0088Z" fill="#3498DB"/>
</svg>
