<svg width="12" height="14" viewBox="0 0 12 14" fill="none" xmlns="http://www.w3.org/2000/svg">
<path d="M11.7467 4.63335C11.0467 1.55335 8.36 0.166687 6 0.166687C6 0.166687 6 0.166687 5.99334 0.166687C3.64 0.166687 0.946669 1.54669 0.246669 4.62669C-0.533331 8.06669 1.57334 10.98 3.48 12.8134C4.18667 13.4934 5.09334 13.8334 6 13.8334C6.90667 13.8334 7.81334 13.4934 8.51334 12.8134C10.42 10.98 12.5267 8.07335 11.7467 4.63335ZM6 7.97335C4.84 7.97335 3.9 7.03335 3.9 5.87335C3.9 4.71335 4.84 3.77335 6 3.77335C7.16 3.77335 8.1 4.71335 8.1 5.87335C8.1 7.03335 7.16 7.97335 6 7.97335Z" fill="#9E9FA7"/>
</svg>
