<svg width="33" height="33" viewBox="0 0 33 33" fill="none" xmlns="http://www.w3.org/2000/svg">
<path d="M16.6667 18.8933C14.102 18.8933 12.0067 16.8097 12.0067 14.2333C12.0067 11.6587 14.1003 9.58667 16.6667 9.58667C19.2314 9.58667 21.3267 11.6703 21.3267 14.2467C21.3267 16.8213 19.233 18.8933 16.6667 18.8933ZM16.6667 10.5867C14.6586 10.5867 13.0067 12.2225 13.0067 14.2467C13.0067 16.2695 14.6438 17.9067 16.6667 17.9067C18.6895 17.9067 20.3267 16.2695 20.3267 14.2467C20.3267 12.2225 18.6748 10.5867 16.6667 10.5867Z" fill="#4CA7E4" stroke="#4CA7E4"/>
<path d="M21.1338 27.5265C24.7171 24.0773 28.8428 18.4909 27.3678 11.9369L27.3673 11.9349C25.9651 5.82127 20.6954 3.66666 16.6666 3.66666C12.6376 3.66666 7.38101 5.82167 5.99252 11.9354C4.48974 18.4904 8.61644 24.0775 12.2132 27.5269M21.1338 27.5265C21.1337 27.5266 21.1335 27.5268 21.1334 27.5269L20.7866 27.1667L21.1339 27.5264C21.1339 27.5264 21.1338 27.5265 21.1338 27.5265ZM21.1338 27.5265C18.6336 29.9399 14.7136 29.94 12.2132 27.5269M12.2132 27.5269C12.2134 27.5271 12.2137 27.5273 12.2139 27.5275L12.5598 27.1668L12.2127 27.5264C12.2129 27.5266 12.213 27.5267 12.2132 27.5269ZM5.00745 11.7179L5.00758 11.7173C6.42362 5.47909 11.8665 2.66666 16.6666 2.66666H16.6667H16.6667H16.6667H16.6667H16.6667H16.6667H16.6667H16.6667H16.6667H16.6667H16.6667H16.6667H16.6668H16.6668H16.6668H16.6668H16.6668H16.6668H16.6668H16.6668H16.6668H16.6668H16.6668H16.6669H16.6669H16.6669H16.6669H16.6669H16.6669H16.6669H16.6669H16.6669H16.667H16.667H16.667H16.667H16.667H16.667H16.667H16.667H16.667H16.6671H16.6671H16.6671H16.6671H16.6671H16.6671H16.6671H16.6671H16.6671H16.6671H16.6671H16.6671H16.6672H16.6672H16.6672H16.6672H16.6672H16.6672H16.6672H16.6672H16.6672H16.6672H16.6672H16.6673H16.6673H16.6673H16.6673H16.6673H16.6673H16.6673H16.6673H16.6673H16.6673H16.6674H16.6674H16.6674H16.6674H16.6674H16.6674H16.6674H16.6674H16.6675H16.6675H16.6675H16.6675H16.6675H16.6675H16.6675H16.6675H16.6676H16.6676H16.6676H16.6676H16.6676H16.6676H16.6676H16.6676H16.6677H16.6677H16.6677H16.6677H16.6677H16.6677H16.6677H16.6678H16.6678H16.6678H16.6678H16.6678H16.6678H16.6679H16.6679H16.6679H16.6679H16.6679H16.6679H16.668H16.668H16.668H16.668H16.668H16.668H16.6681H16.6681H16.6681H16.6681H16.6681H16.6681H16.6682H16.6682H16.6682H16.6682H16.6682H16.6683H16.6683H16.6683H16.6683H16.6683H16.6684H16.6684H16.6684H16.6684H16.6684H16.6685H16.6685H16.6685H16.6685H16.6685H16.6686H16.6686H16.6686H16.6686H16.6686H16.6687H16.6687H16.6687H16.6687H16.6688H16.6688H16.6688H16.6688H16.6689H16.6689H16.6689H16.6689H16.6689H16.669H16.669H16.669H16.669H16.6691H16.6691H16.6691H16.6691H16.6692H16.6692H16.6692H16.6692H16.6693H16.6693H16.6693H16.6694H16.6694H16.6694H16.6694H16.6695H16.6695H16.6695H16.6695H16.6696H16.6696H16.6696H16.6697H16.6697H16.6697H16.6698H16.6698H16.6698H16.6698H16.6699H16.6699H16.6699H16.67H16.67H16.67H16.6701H16.6701H16.6701H16.6702H16.6702H16.6702H16.6702H16.6703H16.6703H16.6703H16.6704H16.6704H16.6704H16.6705H16.6705H16.6706H16.6706H16.6706H16.6707H16.6707H16.6707H16.6708H16.6708H16.6708H16.6709H16.6709H16.6709H16.671H16.671H16.6711H16.6711H16.6711H16.6712H16.6712H16.6712H16.6713H16.6713H16.6714H16.6714H16.6714H16.6715H16.6715H16.6716H16.6716H16.6716H16.6717H16.6717H16.6718H16.6718H16.6718H16.6719H16.6719H16.672H16.672H16.6721H16.6721H16.6721H16.6722H16.6722H16.6723H16.6723H16.6724H16.6724H16.6725H16.6725H16.6725H16.6726H16.6726H16.6727H16.6727H16.6728H16.6728H16.6729H16.6729H16.673H16.673H16.6731H16.6731H16.6731H16.6732H16.6732H16.6733H16.6733H16.6734H16.6734H16.6735H16.6735H16.6736H16.6736H16.6737H16.6737H16.6738H16.6739H16.6739H16.674H16.674H16.6741H16.6741H16.6742H16.6742H16.6743H16.6743H16.6744H16.6744H16.6745H16.6745H16.6746H16.6747H16.6747H16.6748H16.6748H16.6749H16.6749H16.675H16.6751H16.6751H16.6752H16.6752H16.6753H16.6753H16.6754H16.6755H16.6755H16.6756H16.6756H16.6757H16.6758H16.6758H16.6759H16.6759H16.676H16.6761H16.6761H16.6762H16.6763H16.6763H16.6764H16.6764H16.6765H16.6766H16.6766H16.6767H16.6768H16.6768H16.6769H16.677H16.677H16.6771H16.6772H16.6772H16.6773H16.6774H16.6774H16.6775H16.6776H16.6776H16.6777H16.6778H16.6778H16.6779H16.678H16.6781H16.6781H16.6782H16.6783H16.6783H16.6784H16.6785H16.6786H16.6786H16.6787H16.6788H16.6788H16.6789H16.679H16.6791H16.6791H16.6792H16.6793H16.6794H16.6794H16.6795H16.6796H16.6797H16.6797H16.6798H16.6799H16.68C21.4798 2.66666 26.9228 5.47878 28.339 11.7305C29.9044 18.6468 25.7308 24.5009 21.8271 28.2593C20.3756 29.6479 18.5138 30.3467 16.6666 30.3467C14.8195 30.3467 12.9578 29.6479 11.5063 28.2593C7.60273 24.5012 3.42918 18.6341 5.00745 11.7179Z" fill="#B8B8B8" stroke="#4CA7E4"/>
</svg>
