<svg width="41" height="40" viewBox="0 0 41 40" fill="none" xmlns="http://www.w3.org/2000/svg">
<path d="M13.3168 8.06697C13.3085 8.90606 13.0874 9.73334 12.6771 10.4587C12.3428 11.0495 13.2602 11.5697 13.595 10.9781C14.093 10.0975 14.3616 9.0942 14.3712 8.07714C14.3869 6.46955 13.7755 4.95205 12.6496 3.80424C11.5238 2.65644 10.0184 2.01593 8.4108 2.00027C8.39075 2 8.37153 2 8.35148 2C5.05995 2 2.36553 4.66173 2.33367 7.96068C2.31801 9.56827 2.92968 11.0855 4.05524 12.2333C5.07368 13.2715 6.40276 13.8928 7.83676 14.0139V26.8109C6.94714 27.0446 6.28878 27.8554 6.28878 28.8173V37.4713C6.28878 37.7627 6.52498 37.9986 6.81612 37.9986H9.91182C10.203 37.9986 10.4392 37.7627 10.4392 37.4713V28.8173C10.4392 27.856 9.78163 27.0455 8.89146 26.8114V14.0128C9.83217 13.929 10.7388 13.6266 11.5425 13.1235C12.1176 12.7634 11.559 11.8688 10.983 12.2297C10.1813 12.7315 9.25264 12.9903 8.30451 12.9828C6.97845 12.9699 5.73671 12.4415 4.80836 11.4947C3.87973 10.5483 3.37545 9.29663 3.38836 7.97084C3.41473 5.24978 5.63646 3.0547 8.35175 3.0547H8.40064C9.72643 3.0676 10.9682 3.59605 11.8968 4.54281C12.8251 5.48956 13.3297 6.74091 13.3168 8.06697ZM9.38447 28.8173V36.9439H7.34347V28.8173C7.34347 28.2551 7.80078 27.7978 8.36493 27.7978C8.92716 27.7978 9.38447 28.2551 9.38447 28.8173Z" fill="#3498DB"/>
<path d="M7.05399 5.30078C7.05207 5.30078 7.05042 5.30078 7.04877 5.30078C6.75983 5.30078 6.52417 5.53342 6.52142 5.82291L6.4772 10.4073C6.47061 11.0846 7.52503 11.1049 7.53162 10.4174L7.54289 9.27155L8.51683 9.28088C9.61218 9.29352 10.5084 8.41076 10.5191 7.31734C10.524 6.78779 10.3227 6.28791 9.95193 5.9097C9.58087 5.5315 9.0851 5.32056 8.55528 5.31534L7.05399 5.30078ZM9.46441 7.3069C9.45947 7.81887 9.03759 8.23388 8.52727 8.22619L7.55305 8.21685L7.5709 6.36042L8.54512 6.36976C8.79314 6.37223 9.02523 6.47111 9.19881 6.64799C9.3724 6.82515 9.46688 7.05916 9.46441 7.3069Z" fill="#3498DB"/>
<path d="M18.2475 25.8154C16.9429 25.8154 15.8816 26.8861 15.8816 28.202C15.8816 29.5181 16.9429 30.5888 18.2475 30.5888C19.5519 30.5888 20.6132 29.5181 20.6132 28.202C20.6132 26.8861 19.5519 25.8154 18.2475 25.8154ZM18.2475 29.5341C17.5243 29.5341 16.9363 28.9364 16.9363 28.202C16.9363 27.4675 17.5243 26.8701 18.2475 26.8701C18.9704 26.8701 19.5585 27.4675 19.5585 28.202C19.5585 28.9364 18.9704 29.5341 18.2475 29.5341Z" fill="#3498DB"/>
<path d="M31.8138 25.8154C30.5092 25.8154 29.4479 26.8861 29.4479 28.202C29.4479 29.5181 30.5092 30.5888 31.8138 30.5888C33.1182 30.5888 34.1795 29.5181 34.1795 28.202C34.1795 26.8861 33.1182 25.8154 31.8138 25.8154ZM31.8138 29.5341C31.0909 29.5341 30.5026 28.9364 30.5026 28.202C30.5026 27.4675 31.0909 26.8701 31.8138 26.8701C32.5367 26.8701 33.1248 27.4675 33.1248 28.202C33.1248 28.9364 32.5367 29.5341 31.8138 29.5341Z" fill="#3498DB"/>
<path d="M37.0639 31.4036V27.2315C37.0639 26.3628 36.7302 25.5707 36.1847 24.976C36.263 24.9667 36.3413 24.9551 36.4201 24.9392C37.6619 24.6928 38.4913 23.7623 38.3084 22.821C38.2354 22.4447 38.0118 22.1215 37.6619 21.8864C37.1617 21.5505 36.4696 21.4381 35.7631 21.5782C35.2913 21.6721 34.879 21.8647 34.559 22.1193L33.707 18.5163C33.4582 17.4638 32.535 16.7285 31.4622 16.7285H18.7891C17.7166 16.7285 16.7934 17.4638 16.5443 18.5163L15.6923 22.119C15.3723 21.8647 14.9604 21.6719 14.4882 21.5782C13.7818 21.4378 13.0896 21.5505 12.5895 21.8864C12.2396 22.1215 12.0157 22.4447 11.9427 22.821C11.76 23.7623 12.5895 24.6928 13.8312 24.9392C13.9101 24.9549 13.9883 24.9664 14.0666 24.976C13.5209 25.5707 13.1874 26.3628 13.1874 27.2315V31.4036C12.4945 31.6168 11.9894 32.2628 11.9894 33.0247C11.9894 33.7825 12.4892 34.4257 13.1764 34.6424V36.5609C13.1764 37.3541 13.8219 37.9996 14.6148 37.9996H16.4696C17.2626 37.9996 17.908 37.3541 17.908 36.5609V34.7207H19.7702C20.4489 34.7207 20.45 33.666 19.7702 33.666H13.6854C13.3319 33.666 13.044 33.3782 13.044 33.0247C13.044 32.6712 13.3319 32.3833 13.6854 32.3833H36.566C36.9195 32.3833 37.2073 32.6712 37.2073 33.0247C37.2073 33.3782 36.9195 33.666 36.566 33.666H22.653C21.9744 33.666 21.9733 34.7207 22.653 34.7207H32.4483V36.5609C32.4483 37.3541 33.0937 37.9996 33.8867 37.9996H35.7414C36.5347 37.9996 37.1798 37.3541 37.1798 36.5609V34.6051C37.8121 34.3584 38.2617 33.7435 38.2617 33.0247C38.2617 32.2628 37.7569 31.6168 37.0639 31.4036ZM16.8533 36.5612C16.8533 36.7727 16.6811 36.9449 16.4696 36.9449H14.6148C14.4033 36.9449 14.2311 36.7727 14.2311 36.5612V34.7265H16.8533V36.5612ZM35.9686 22.6128C36.0963 22.5873 36.2246 22.5749 36.3482 22.5749C36.6316 22.5749 36.8917 22.6398 37.0735 22.762C37.1872 22.8383 37.2545 22.9257 37.2732 23.0218C37.3325 23.3278 36.8925 23.7703 36.2147 23.9048C35.7942 23.9883 35.3706 23.9312 35.1094 23.7557C34.9957 23.6793 34.9287 23.5917 34.91 23.4956C34.8507 23.1899 35.2907 22.7471 35.9686 22.6128ZM12.9781 23.0218C12.9968 22.9257 13.0638 22.8383 13.1775 22.762C13.3594 22.6398 13.6197 22.5749 13.9029 22.5749C14.0268 22.5749 14.1551 22.5873 14.2828 22.6128C14.9606 22.7471 15.4006 23.1899 15.3413 23.4956C15.3226 23.5917 15.2556 23.6793 15.1419 23.7557C14.8807 23.9312 14.4572 23.9883 14.0367 23.9048C13.3588 23.7703 12.9188 23.3278 12.9781 23.0218ZM14.2421 31.3289V27.2315C14.2421 26.0019 15.2183 24.9966 16.4364 24.9488H28.77C29.4561 24.9488 29.4578 23.8917 28.77 23.8917C25.1338 23.8917 16.8577 23.8853 16.3562 23.8941L17.5707 18.7591C17.7067 18.1845 18.2077 17.7832 18.7891 17.7832H31.4622C32.0437 17.7832 32.5447 18.1845 32.6806 18.7591L33.8949 23.8941C33.1478 23.9004 32.3999 23.8917 31.6526 23.8917C30.9665 23.8917 30.9648 24.9488 31.6526 24.9488H33.815C35.0331 24.9966 36.0092 26.0019 36.0092 27.2315V31.3289H14.2421ZM36.1251 36.5612C36.1251 36.7727 35.9532 36.9449 35.7414 36.9449H33.8869C33.6752 36.9449 33.5032 36.7727 33.5032 36.5612V34.7265H36.1254V36.5612H36.1251Z" fill="#3498DB"/>
<path d="M27.8515 26.7773H22.3998C21.7211 26.7773 21.72 27.832 22.3998 27.832H27.8515C28.5302 27.832 28.5313 26.7773 27.8515 26.7773Z" fill="#3498DB"/>
<path d="M27.8515 28.7646H22.3998C21.7211 28.7646 21.72 29.8193 22.3998 29.8193H27.8515C28.5302 29.8193 28.5313 28.7646 27.8515 28.7646Z" fill="#3498DB"/>
</svg>
