<svg width="41" height="40" viewBox="0 0 41 40" fill="none" xmlns="http://www.w3.org/2000/svg">
<path d="M37.806 24.5652C36.1721 24.5652 35.3739 24.2035 34.5285 23.8206C34.2629 23.7003 33.9506 23.8181 33.8306 24.0834C33.7103 24.3488 33.8281 24.6613 34.0932 24.7816C35.0034 25.1936 35.9444 25.6199 37.806 25.6199C38.0974 25.6199 38.3334 25.384 38.3334 25.0925C38.3334 24.8014 38.0974 24.5652 37.806 24.5652Z" fill="#3498DB"/>
<path d="M2.86072 22.9827C2.56931 22.9827 2.33337 23.2189 2.33337 23.5103C2.33337 23.8014 2.56931 24.0376 2.86072 24.0376C4.13925 24.0376 4.90747 24.2519 5.66718 24.5735C5.8251 24.6405 5.97617 24.7089 6.13629 24.7814C7.04624 25.194 7.98749 25.6205 9.8494 25.6205C11.7108 25.6205 12.6517 25.1942 13.5617 24.782C14.2914 24.4513 14.9806 24.139 16.1967 24.058C16.197 24.058 16.1973 24.058 16.1976 24.0577C16.4069 24.0442 16.6225 24.0376 16.8384 24.0376C17.433 24.0376 17.951 24.0849 18.4223 24.1827C19.0993 24.3222 19.5926 24.5455 20.115 24.7822C21.025 25.1942 21.9659 25.6205 23.827 25.6205C24.6543 25.6205 25.3767 25.534 26.0364 25.356C26.0367 25.356 26.0369 25.356 26.0372 25.3557C26.6255 25.1962 27.09 24.9858 27.539 24.7822C28.3844 24.3991 29.1829 24.0376 30.8165 24.0376C31.1552 24.0376 31.476 24.0536 31.7701 24.0849C32.0605 24.1156 32.3197 23.9064 32.3508 23.6166C32.3818 23.3271 32.172 23.067 31.8825 23.0362C31.551 23.0008 31.1925 22.9827 30.8165 22.9827C29.4328 22.9827 28.5577 23.2183 27.8258 23.5087C28.2098 22.5814 28.1938 21.4995 27.7 20.552C28.4891 20.1968 29.2867 19.8796 30.8163 19.8796C32.4499 19.8796 33.2484 20.2413 34.0935 20.6242C35.0037 21.0365 35.9444 21.4627 37.8055 21.4627C38.0966 21.4627 38.3328 21.2268 38.3328 20.9354C38.3328 20.6442 38.0966 20.408 37.8055 20.408C36.1724 20.408 35.3739 20.0463 34.5288 19.6634C33.6189 19.2512 32.6776 18.8249 30.8163 18.8249C28.9977 18.8249 28.0573 19.2319 27.1663 19.6357C26.1537 18.1097 24.1097 17.6134 22.5035 18.5412L20.555 19.6659C20.5531 19.6648 20.5509 19.664 20.5487 19.6629C19.8785 19.3591 19.1875 19.0474 18.1202 18.9048L19.1381 15.5554C19.1815 15.4125 19.2861 15.2997 19.4254 15.2456L27.0405 12.2831C27.1869 12.2534 27.3405 12.2724 27.4756 12.3375L30.6844 13.8824C30.7017 13.8909 30.7196 13.8984 30.738 13.9047C31.2648 14.0903 31.8289 13.9044 32.1418 13.4421C32.4549 12.9796 32.4181 12.3864 32.05 11.9661L29.7918 9.38737C29.3957 8.93501 28.8027 8.69935 28.2051 8.75648C28.1924 8.75758 28.1801 8.75923 28.1675 8.76142L16.447 10.7428C15.6027 10.8293 14.86 11.3605 14.5054 12.1331L12.9723 15.4691C12.8506 15.7339 12.9665 16.047 13.2313 16.1687C13.496 16.2904 13.8091 16.1745 13.9305 15.9097L15.4637 12.5734C15.6647 12.1356 16.0872 11.8359 16.5659 11.7909C16.5791 11.7898 16.592 11.7882 16.6046 11.786L28.3224 9.80485C28.577 9.7859 28.8288 9.8889 28.9983 10.0823L31.2565 12.6607C31.309 12.7209 31.3131 12.7846 31.2683 12.8505C31.228 12.9104 31.1744 12.9324 31.1082 12.9159L27.9334 11.3872C27.5684 11.2114 27.1512 11.1683 26.7585 11.2658C26.7368 11.271 26.7153 11.2778 26.6942 11.2861L19.043 14.2626C18.6003 14.4348 18.2671 14.794 18.129 15.2486L15.7622 23.0371C15.7458 23.0387 15.7301 23.0412 15.7139 23.0431C14.5548 23.1749 13.8292 23.5026 13.1263 23.8209C12.2809 24.2041 11.4828 24.5655 9.8494 24.5655C8.44672 24.5655 7.65982 24.2991 6.93033 23.9811L10.8912 21.5075C11.3199 21.2394 11.658 20.8552 11.869 20.3959L12.677 18.6379C12.7987 18.3731 12.6828 18.06 12.418 17.9383C12.1532 17.8166 11.8401 17.9325 11.7184 18.1973L10.9104 19.9557C10.8384 20.1125 10.7404 20.2542 10.6223 20.3767C10.3806 20.397 10.1221 20.408 9.84912 20.408C8.216 20.408 7.41785 20.0463 6.57272 19.6634C5.66278 19.2512 4.7218 18.8249 2.86072 18.8249C2.56931 18.8249 2.33337 19.0608 2.33337 19.3522C2.33337 19.6434 2.56931 19.8796 2.86072 19.8796C4.49411 19.8796 5.29227 20.2413 6.13739 20.6242C6.90122 20.9703 7.68756 21.3262 9.0213 21.4314L5.75479 23.4718C5.05469 23.2046 4.19089 22.9827 2.86072 22.9827ZM23.0311 19.4547C24.1975 18.7807 25.695 19.1822 26.3693 20.3493L26.4951 20.5671C26.4953 20.5676 26.4959 20.5684 26.4962 20.569L26.7134 20.945C27.3872 22.112 26.9859 23.61 25.8189 24.2843L25.6991 24.3535C25.1468 24.4958 24.534 24.5658 23.827 24.5658C22.1936 24.5658 21.3955 24.2041 20.5501 23.8215C20.0922 23.6138 19.6209 23.401 19.0219 23.2411C19.0205 23.2409 19.0191 23.24 19.0175 23.2398C18.9988 22.3592 19.4627 21.5146 20.2392 21.0661L23.0311 19.4547ZM19.4361 20.3309C18.5525 20.9601 18.0117 21.9717 17.9661 23.0434C17.6266 23.0047 17.2671 22.9846 16.8809 22.9832L17.809 19.9296C18.4805 20.0029 18.9826 20.1518 19.4361 20.3309Z" fill="#3498DB"/>
<path d="M37.8058 28.7235C36.1724 28.7235 35.3739 28.3618 34.5288 27.9792C33.6186 27.5669 32.6776 27.1406 30.8165 27.1406C28.9552 27.1406 28.0142 27.5669 27.1042 27.9792C26.2591 28.362 25.4607 28.7235 23.8273 28.7235C22.1939 28.7235 21.3955 28.3618 20.5503 27.9792C19.6404 27.5669 18.6994 27.1406 16.8383 27.1406C15.284 27.1406 14.3574 27.4452 13.5875 27.7743C13.3197 27.8888 13.1953 28.1986 13.3098 28.4664C13.4243 28.7342 13.7339 28.8586 14.0022 28.7441C14.6232 28.4785 15.4057 28.1953 16.8383 28.1953C18.4717 28.1953 19.2699 28.557 20.1153 28.9399C21.0252 29.3519 21.9662 29.7782 23.8273 29.7782C25.6884 29.7782 26.6296 29.3519 27.5396 28.9399C28.3847 28.557 29.1831 28.1953 30.8165 28.1953C32.4499 28.1953 33.2483 28.557 34.0935 28.9399C35.0037 29.3519 35.9447 29.7782 37.8058 29.7782C38.0972 29.7782 38.3331 29.5422 38.3331 29.2508C38.3331 28.9597 38.0972 28.7235 37.8058 28.7235Z" fill="#3498DB"/>
<path d="M11.3578 28.5938C10.9054 28.6812 10.4121 28.7235 9.84964 28.7235C8.21652 28.7235 7.41809 28.3618 6.57297 27.9792C5.66303 27.5669 4.72205 27.1406 2.86096 27.1406C2.56955 27.1406 2.33362 27.3768 2.33362 27.668C2.33362 27.9591 2.56955 28.1953 2.86096 28.1953C4.49435 28.1953 5.29251 28.557 6.13764 28.9399C7.04758 29.3519 7.98856 29.7782 9.84964 29.7782C10.48 29.7782 11.0386 29.7296 11.5575 29.6296C11.8434 29.5744 12.0307 29.2978 11.9755 29.0119C11.9203 28.726 11.644 28.5389 11.3578 28.5938Z" fill="#3498DB"/>
<path d="M37.8058 32.8817C36.1724 32.8817 35.3739 32.5202 34.5288 32.1374C33.6186 31.7251 32.6776 31.2988 30.8165 31.2988C28.9552 31.2988 28.0142 31.7251 27.1043 32.1374C26.2591 32.5202 25.4607 32.8817 23.8273 32.8817C22.1939 32.8817 21.3955 32.5202 20.5504 32.1374C19.6404 31.7251 18.6994 31.2988 16.8384 31.2988C14.9773 31.2988 14.0363 31.7251 13.1263 32.1374C12.2812 32.5202 11.4831 32.8817 9.84967 32.8817C8.21628 32.8817 7.41812 32.5202 6.57272 32.1374C5.66278 31.7251 4.7218 31.2988 2.86072 31.2988C2.56931 31.2988 2.33337 31.535 2.33337 31.8262C2.33337 32.1176 2.56931 32.3535 2.86072 32.3535C4.49411 32.3535 5.29227 32.7152 6.13767 33.0981C7.04761 33.5104 7.98859 33.9366 9.84967 33.9366C11.7108 33.9366 12.6517 33.5104 13.5617 33.0981C14.4068 32.7152 15.205 32.3535 16.8384 32.3535C18.4717 32.3535 19.2699 32.7152 20.1153 33.0981C21.0252 33.5104 21.9662 33.9366 23.8273 33.9366C25.6884 33.9366 26.6294 33.5104 27.5396 33.0981C28.3847 32.7152 29.1831 32.3535 30.8165 32.3535C32.4499 32.3535 33.2484 32.7152 34.0935 33.0981C35.0034 33.5104 35.9444 33.9366 37.8058 33.9366C38.0972 33.9366 38.3331 33.7004 38.3331 33.4093C38.3331 33.1179 38.0972 32.8817 37.8058 32.8817Z" fill="#3498DB"/>
<path d="M34.8268 14.0694C34.6252 14.1084 34.4521 14.2336 34.3519 14.4133C34.0714 14.9156 33.7638 15.6407 33.8902 16.243C33.9646 16.5976 34.1728 16.9022 34.476 17.1003C34.6993 17.2461 34.9545 17.3214 35.2151 17.3214C35.3088 17.3214 35.403 17.3117 35.4966 17.292C36.2289 17.1382 36.6994 16.4177 36.5458 15.6855C36.4541 15.2493 36.0668 14.753 35.3945 14.2106C35.2349 14.0818 35.0278 14.0304 34.8268 14.0694ZM35.5134 15.9022C35.5475 16.0653 35.4428 16.2257 35.2799 16.2598C35.2011 16.2763 35.1204 16.2612 35.0528 16.2172C34.9852 16.173 34.9391 16.1052 34.9223 16.0263C34.8965 15.903 34.9388 15.6566 35.0745 15.332C35.3623 15.6091 35.495 15.8151 35.5134 15.9022Z" fill="#3498DB"/>
<path d="M6.59746 13.922C6.71557 14.0044 6.85427 14.0473 6.99489 14.0473C7.05504 14.0473 7.11574 14.0396 7.17507 14.0236C7.7307 13.8751 8.46569 13.5911 8.80983 13.081C9.22841 12.4611 9.06444 11.6163 8.44454 11.1974C8.14406 10.9947 7.78261 10.9211 7.42693 10.99C7.07125 11.0593 6.76363 11.2625 6.56093 11.563C6.31154 11.9324 6.22503 12.5559 6.30358 13.4161C6.32225 13.6202 6.42937 13.8047 6.59746 13.922ZM7.43517 12.1532C7.48021 12.0862 7.5486 12.0409 7.62771 12.0255C7.64721 12.0219 7.66671 12.02 7.68593 12.02C7.74553 12.02 7.80376 12.0376 7.8543 12.0716C7.99218 12.165 8.02871 12.3529 7.9356 12.4911C7.86529 12.5954 7.65874 12.7366 7.33135 12.8651C7.32998 12.4655 7.38518 12.2268 7.43517 12.1532Z" fill="#3498DB"/>
<path d="M13.1609 9.29489C11.9906 10.3861 10.948 11.6141 10.0619 12.9448C9.12095 14.3585 8.3563 15.8875 7.78941 17.4899C7.69218 17.7645 7.8361 18.0658 8.11076 18.1631C8.16899 18.1837 8.22831 18.1933 8.28654 18.1933C8.50379 18.1933 8.70732 18.0581 8.78367 17.8417C9.32173 16.3215 10.0471 14.8705 10.94 13.5293C11.7807 12.2667 12.7698 11.1016 13.8802 10.0664C14.0934 9.86783 14.1049 9.53412 13.9063 9.32098C13.7077 9.10812 13.374 9.09631 13.1609 9.29489Z" fill="#3498DB"/>
<path d="M10.2328 9.73859C10.358 9.73859 10.4835 9.6941 10.5843 9.60428C11.3174 8.9484 12.5495 8.07553 14.2543 7.64212C15.3288 7.36884 16.4357 7.30512 17.5445 7.45234C17.834 7.49106 18.0984 7.28781 18.1366 6.99915C18.1751 6.71021 17.9721 6.44516 17.6834 6.40671C16.4409 6.24164 15.1997 6.31333 13.9945 6.61985C12.4811 7.00464 11.0587 7.76462 9.88095 8.81794C9.66397 9.01212 9.64529 9.34555 9.83947 9.56253C9.94384 9.67926 10.088 9.73859 10.2328 9.73859Z" fill="#3498DB"/>
<path d="M28.0419 7.05323C28.9441 7.12162 30.293 7.40424 31.5943 8.36143C33.2596 9.58586 33.91 11.2308 34.1492 12.1023C34.2137 12.3363 34.426 12.4901 34.6576 12.4901C34.7037 12.4901 34.751 12.484 34.7976 12.4711C35.0786 12.394 35.2437 12.1036 35.1665 11.8229C34.8908 10.8196 34.1412 8.92503 32.2192 7.51164C30.7165 6.40669 29.1617 6.08039 28.1218 6.00157C27.8307 5.97932 27.578 6.19685 27.556 6.48744C27.5338 6.77775 27.7516 7.03098 28.0419 7.05323Z" fill="#3498DB"/>
</svg>
