<svg width="36" height="34" viewBox="0 0 36 34" fill="none" xmlns="http://www.w3.org/2000/svg">
<path d="M34.4638 17.3964H33.2141C33.0971 15.4963 32.6343 13.6624 31.8334 11.9384C31.7112 11.6745 31.3981 11.5602 31.1342 11.6824C30.8702 11.8049 30.7557 12.118 30.8782 12.382C31.614 13.9665 32.0433 15.651 32.1586 17.3964H8.0365C7.74564 17.3964 7.50998 17.6321 7.50998 17.9229C7.50998 18.2138 7.74564 18.4495 8.0365 18.4495H34.4638C34.7303 18.4495 34.9467 18.6662 34.9467 18.9326V19.5753C34.9467 19.8417 34.7303 20.0584 34.4638 20.0584H1.53616C1.26974 20.0584 1.05331 19.8417 1.05331 19.5753V18.9326C1.05331 18.6662 1.26974 18.4495 1.53616 18.4495H5.58188C5.87274 18.4495 6.10867 18.2138 6.10867 17.9229C6.10867 17.6321 5.87274 17.3964 5.58188 17.3964H3.84137C4.07346 13.8981 5.57364 10.6437 8.10214 8.18219C10.5389 5.81024 13.6876 4.41388 17.0527 4.1925C17.0546 4.1925 17.0565 4.19278 17.0585 4.1925C17.2018 4.18317 17.3436 4.17603 17.4836 4.17081C17.5117 4.16998 17.5394 4.16861 17.5674 4.16779C17.6174 4.16614 17.6671 4.16504 17.7163 4.16394C17.8108 4.16229 17.9052 4.16064 18 4.16064C18.1258 4.16064 18.2516 4.16312 18.3771 4.16641C18.4142 4.16751 18.451 4.16861 18.4883 4.16971C18.585 4.173 18.6814 4.17795 18.7778 4.18317C18.8289 4.18591 18.88 4.18866 18.9314 4.19196C23.2548 4.47595 27.2324 6.7243 29.7076 10.3295C29.8721 10.569 30.2 10.6302 30.4398 10.4654C30.6796 10.3009 30.7406 9.97296 30.5758 9.73318C28.1401 6.18542 24.349 3.86182 20.1588 3.26251C20.4214 2.85492 20.5689 2.37509 20.5689 1.87247C20.5689 1.58627 20.4412 1.05865 19.5859 0.743896C19.1588 0.586792 18.5955 0.5 18 0.5C17.4043 0.5 16.8409 0.586792 16.4138 0.743896C15.5586 1.05865 15.4311 1.58627 15.4311 1.87247C15.4311 2.37372 15.5781 2.85272 15.839 3.25949C12.6576 3.70966 9.70697 5.14996 7.36743 7.42743C4.63431 10.088 3.01959 13.6114 2.78586 17.3961H1.53616C0.689117 17.3964 0 18.0855 0 18.9326V19.5753C0 20.4226 0.689117 21.1117 1.53616 21.1117H7.20923C6.92606 21.3056 6.65469 21.5232 6.40063 21.7646L6.3902 21.7745C6.37399 21.7896 6.35861 21.8058 6.3446 21.8231L3.84439 24.8592C3.53073 24.66 3.15939 24.5875 2.793 24.6578C2.41095 24.7309 2.08054 24.9484 1.86246 25.2703L0.879181 26.7202C0.429565 27.3835 0.603149 28.2896 1.2659 28.7398L7.9942 33.3107C8.2381 33.4763 8.5199 33.5625 8.80856 33.5625C8.9003 33.5625 8.99286 33.5537 9.08514 33.5362C9.46692 33.4631 9.79733 33.2456 10.0154 32.9237L10.9987 31.4738C11.4483 30.8105 11.275 29.9044 10.6122 29.4542L10.5738 29.4281C11.0421 28.8966 11.6664 28.5157 12.3456 28.3586C13.7769 28.0271 15.4611 28.2405 16.6034 28.4297C18.0165 28.6637 19.5007 28.5838 20.8957 28.1985L22.8348 27.6626C24.1265 27.3055 25.3152 26.7043 26.3683 25.8754C26.3763 25.8691 26.3839 25.8628 26.3916 25.8559L29.7208 22.9074C30.2882 22.4732 30.4118 21.7212 30.216 21.1117H34.4638C35.3109 21.1117 36 20.4226 36 19.5756V18.9326C36 18.0855 35.3109 17.3964 34.4638 17.3964ZM18 1.55331C18.8869 1.55331 19.4183 1.77277 19.5156 1.89471C19.5084 2.39432 19.2557 2.85519 18.8446 3.1315C18.741 3.12601 18.6389 3.12161 18.537 3.11777C18.5026 3.11667 18.4683 3.11502 18.434 3.1142C18.287 3.1098 18.142 3.1076 18 3.1076C17.8992 3.1076 17.7965 3.10898 17.6929 3.11118C17.6429 3.112 17.5927 3.11337 17.5424 3.11502C17.4825 3.11694 17.4221 3.11887 17.3617 3.12134C17.2928 3.12436 17.2238 3.12738 17.1552 3.13123C16.744 2.85492 16.4916 2.39404 16.4844 1.89471C16.5817 1.77277 17.1131 1.55331 18 1.55331ZM21.7766 21.3658C21.7373 21.2768 21.6903 21.1922 21.6373 21.1117H26.6885L24.5045 22.5573L21.3912 23.4579L21.2855 23.4603C21.8848 22.9607 22.1034 22.1076 21.7766 21.3658ZM16.0659 21.1117L15.3059 21.2702L14.7184 21.1117H16.0659ZM10.1269 30.8827L9.14392 32.3326C9.08377 32.4216 8.99258 32.4815 8.88712 32.5018C8.78192 32.5219 8.6748 32.4999 8.58609 32.4395L1.85779 27.8686C1.67487 27.7444 1.62708 27.4945 1.75122 27.3116L2.7345 25.8614C2.79465 25.7727 2.88556 25.7125 2.99103 25.6925C3.01657 25.6875 3.04211 25.6851 3.06738 25.6851C3.14703 25.6851 3.22476 25.709 3.29205 25.7548L3.65543 26.0015L10.0204 30.3254C10.2033 30.4496 10.2511 30.6998 10.1269 30.8827ZM29.0745 22.0758C29.0619 22.0848 29.0498 22.0947 29.038 22.1052L25.7053 25.0572C24.7657 25.7941 23.7055 26.3291 22.5544 26.6472L20.6153 27.183C19.3667 27.5283 18.039 27.6 16.7758 27.3907C15.5448 27.1869 13.7222 26.9586 12.108 27.3325C11.1731 27.5489 10.3195 28.0861 9.69846 28.8332L4.72083 25.4519L7.13672 22.518C8.05051 21.6553 9.20929 21.143 10.3189 21.1117H10.3403C10.6845 21.106 11.0487 21.2073 11.434 21.3152C11.5115 21.3367 11.5887 21.3584 11.6661 21.3792L15.1532 22.3199C15.2331 22.3414 15.3169 22.3438 15.3979 22.3268L19.9649 21.3746C20.172 21.3317 20.3895 21.3737 20.5617 21.4905C20.673 21.566 20.7598 21.6698 20.8128 21.7904C20.9693 22.1455 20.8218 22.5625 20.4719 22.7426L18.9138 23.5677C18.6982 23.682 18.5894 23.9292 18.6507 24.1654C18.7122 24.4019 18.9272 24.5628 19.1717 24.5595L21.4829 24.5095C21.5288 24.5084 21.5741 24.5016 21.6178 24.4889L24.8744 23.5468C24.9258 23.532 24.9744 23.5095 25.0189 23.4801L28.3044 21.3054C28.5801 21.1351 28.9471 20.995 29.1423 21.2831C29.2945 21.5072 29.2981 21.9107 29.0745 22.0758Z" fill="#3498DB"/>
</svg>
