<svg width="40" height="40" viewBox="0 0 40 40" fill="none" xmlns="http://www.w3.org/2000/svg">
<path d="M35.9962 24.4022C36.1307 24.1205 36.2004 23.8122 36.2 23.5V20.5C36.1994 19.9432 35.9779 19.4095 35.5842 19.0158C35.1905 18.6221 34.6568 18.4006 34.1 18.4H33.1917C33.1544 18.0701 32.997 17.7656 32.7496 17.5443C32.5022 17.323 32.182 17.2004 31.85 17.2H12.8C12.6409 17.2 12.4883 17.2632 12.3757 17.3757C12.2632 17.4883 12.2 17.6409 12.2 17.8V18.4H10.5981C10.7694 18.0388 10.8341 17.6362 10.7846 17.2395L9.9596 10.6395C9.89544 10.1319 9.64845 9.66513 9.2649 9.32652C8.88134 8.98791 8.38751 8.80072 7.87588 8.8H7.1C6.78779 8.79964 6.47948 8.8693 6.19775 9.00385C6.1724 8.46433 5.94039 7.95526 5.54983 7.58218C5.15927 7.20911 4.64011 7.00064 4.1 7H2.6C2.44087 7 2.28826 7.06321 2.17574 7.17574C2.06321 7.28826 2 7.44087 2 7.6V10.6H3.2V8.2H4.1C4.33862 8.20026 4.56738 8.29516 4.73611 8.46389C4.90484 8.63262 4.99974 8.86138 5 9.1V29.2H3.2V11.8H2V33.4C2 33.5591 2.06321 33.7117 2.17574 33.8243C2.28826 33.9368 2.44087 34 2.6 34H4.03775C4.7935 34.0007 5.53025 33.7632 6.14335 33.3214C6.75645 32.8795 7.2147 32.2556 7.45303 31.5384L7.83245 30.4H28.4V29.2H6.2V25.6H35.9C36.1386 25.6003 36.3674 25.6952 36.5361 25.8639C36.7048 26.0326 36.7997 26.2614 36.8 26.5V29.2H29.6V30.4H32.1676L32.547 31.5385C32.7853 32.2557 33.2436 32.8795 33.8567 33.3214C34.4698 33.7632 35.2065 34.0007 35.9622 34H37.4C37.5591 34 37.7117 33.9368 37.8243 33.8243C37.9368 33.7117 38 33.5591 38 33.4V26.5C37.9994 25.9599 37.7909 25.4407 37.4178 25.0502C37.0447 24.6596 36.5357 24.4276 35.9962 24.4022ZM6.5675 30.4L6.31453 31.1589C6.15567 31.6371 5.85018 32.053 5.44146 32.3476C5.03274 32.6422 4.54158 32.8005 4.03775 32.8H3.2V30.4H6.5675ZM32 18.55V22H17V18.4H31.85C31.8898 18.4 31.9279 18.4158 31.9561 18.4439C31.9842 18.4721 32 18.5102 32 18.55ZM13.4 18.4H15.8V22H13.4V18.4ZM7.1 10H7.87588C8.09514 10.0003 8.30676 10.0806 8.47113 10.2257C8.6355 10.3708 8.74133 10.5709 8.76883 10.7884L9.59383 17.3884C9.60965 17.515 9.59837 17.6436 9.56073 17.7655C9.52309 17.8874 9.45995 17.9999 9.37551 18.0956C9.29106 18.1913 9.18724 18.2679 9.07093 18.3204C8.95462 18.3728 8.82848 18.4 8.70088 18.4H6.2V10.9C6.20026 10.6614 6.29516 10.4326 6.46389 10.2639C6.63262 10.0952 6.86138 10.0003 7.1 10ZM6.2 24.4V19.6H12.2V22.6C12.2 22.7591 12.2632 22.9117 12.3757 23.0243C12.4883 23.1368 12.6409 23.2 12.8 23.2H32.6C32.7591 23.2 32.9117 23.1368 33.0243 23.0243C33.1368 22.9117 33.2 22.7591 33.2 22.6V19.6H34.1C34.3386 19.6003 34.5674 19.6952 34.7361 19.8639C34.9048 20.0326 34.9997 20.2614 35 20.5V23.5C34.9997 23.7386 34.9048 23.9674 34.7361 24.1361C34.5674 24.3048 34.3386 24.3997 34.1 24.4H6.2ZM36.8 32.8H35.9622C35.4584 32.8005 34.9673 32.6422 34.5586 32.3476C34.1498 32.053 33.8443 31.6371 33.6855 31.159L33.4325 30.4H36.8V32.8Z" fill="#3498DB"/>
</svg>
