<svg width="12" height="13" viewBox="0 0 12 13" fill="none" xmlns="http://www.w3.org/2000/svg">
<path d="M6.86495 2.59491L7.74495 4.35491C7.86495 4.59991 8.18495 4.83491 8.45495 4.87991L10.05 5.14491C11.07 5.31491 11.31 6.05491 10.575 6.78491L9.33495 8.02491C9.12495 8.23491 9.00995 8.63991 9.07495 8.92991L9.42995 10.4649C9.70995 11.6799 9.06495 12.1499 7.98995 11.5149L6.49495 10.6299C6.22495 10.4699 5.77995 10.4699 5.50495 10.6299L4.00995 11.5149C2.93995 12.1499 2.28995 11.6749 2.56995 10.4649L2.92495 8.92991C2.98995 8.63991 2.87495 8.23491 2.66495 8.02491L1.42495 6.78491C0.694954 6.05491 0.929955 5.31491 1.94995 5.14491L3.54495 4.87991C3.80995 4.83491 4.12995 4.59991 4.24995 4.35491L5.12995 2.59491C5.60995 1.63991 6.38995 1.63991 6.86495 2.59491Z" fill="#FF9F43" stroke="#FF9F43" stroke-width="1.5" stroke-linecap="round" stroke-linejoin="round"/>
</svg>
