<svg width="40" height="40" viewBox="0 0 40 40" fill="none" xmlns="http://www.w3.org/2000/svg">
<path d="M19.5509 22.9583C19.5509 23.2222 19.3465 23.4266 19.0825 23.4266H16.0681C15.9325 23.4285 15.7907 23.3799 15.7019 23.2734C15.5231 23.0775 15.5401 22.788 15.7274 22.6092L18.248 20.327C18.6748 19.9444 18.7199 19.2714 18.3696 18.8228C18.0088 18.3608 17.3205 18.284 16.8509 18.6245C16.6629 18.7608 16.5066 19.0062 16.2659 19.0479C16.0413 19.0869 15.819 18.9482 15.7447 18.735C15.6263 18.3951 15.9171 18.1917 16.1361 17.9938C16.5194 17.6362 17.0217 17.4658 17.5072 17.4658C18.0607 17.4658 18.6227 17.6957 19.0229 18.1386C19.3806 18.5218 19.5509 19.0242 19.5509 19.5096C19.5509 20.0631 19.321 20.6251 18.8782 21.0253L17.2687 22.4815H19.0825C19.3465 22.4814 19.5509 22.6943 19.5509 22.9583Z" fill="#3498DB"/>
<path d="M24.345 21.8426C24.345 22.1065 24.1321 22.3109 23.8681 22.3109H23.783V22.9581C23.783 23.222 23.5786 23.4264 23.3146 23.4264C23.0507 23.4264 22.8463 23.222 22.8463 22.9581V22.3109H20.1809C19.7854 22.3245 19.5535 21.8616 19.7978 21.553C19.9063 21.4182 22.9129 17.6709 22.9483 17.6362C22.9778 17.6073 23.0157 17.5692 23.0508 17.5465C23.3581 17.3477 23.7831 17.5555 23.7831 17.934V21.3742H23.8683C24.1321 21.3742 24.345 21.5871 24.345 21.8426ZM22.8462 19.2709L21.1516 21.3742H22.8462V19.2709Z" fill="#3498DB"/>
<path d="M35.1897 14.3568C33.9056 7.13675 27.2318 2 19.9999 2C12.768 2 6.09451 7.13689 4.81025 14.3567C3.22013 14.6049 2 15.9741 2 17.6212V19.3672C2 20.0473 3.05469 20.0473 3.05469 19.3672V17.6211C3.05469 16.3804 4.07499 15.371 5.32916 15.371H6.42969V26.3136H5.32916C4.07499 26.3137 3.05469 25.3043 3.05469 24.0636V22.0391C3.05469 21.3589 2 21.3589 2 22.0391V24.0636C2 25.8859 3.49344 27.3684 5.32916 27.3684H6.48594C6.97496 29.1943 9.77452 28.835 9.77452 26.9411V14.7436C9.77452 12.8531 6.97587 12.4873 6.48594 14.3164H5.89123C7.18646 7.70122 13.3547 3.05469 19.9999 3.05469C26.6452 3.05469 32.8135 7.70115 34.1087 14.3164H33.5141C33.025 12.4905 30.2254 12.8499 30.2254 14.7436V26.9411C30.2254 28.8317 33.0242 29.1976 33.5141 27.3684H34.1017C33.1554 32.3797 28.5746 35.6465 23.5968 35.8041C23.3726 35.1484 22.7476 34.6751 22.013 34.6751H17.987C17.0808 34.6751 16.3145 35.4285 16.3145 36.3376C16.3145 37.2467 17.0808 38 17.987 38H22.013C22.752 38 23.3802 37.521 23.6008 36.859C29.1781 36.6946 34.2325 32.9478 35.1797 27.3298C36.7747 27.0859 38 25.7142 38 24.0636V17.6212C38 15.9741 36.7798 14.6049 35.1897 14.3568ZM7.48438 14.7436C7.48438 13.9591 8.71984 13.9586 8.71984 14.7436V26.9411C8.71984 27.7258 7.48438 27.7262 7.48438 26.9411V14.7436ZM22.013 36.9453H17.987C17.1926 36.9453 17.1921 35.7298 17.987 35.7298H22.013C22.8074 35.7298 22.808 36.9453 22.013 36.9453ZM32.5156 26.9411C32.5156 27.7258 31.2801 27.7262 31.2801 26.9411V14.7436C31.2801 13.959 32.5156 13.9586 32.5156 14.7436V26.9411ZM36.9453 24.0636C36.9453 25.3044 35.9249 26.3137 34.6707 26.3137H33.5703V15.371H34.6707C35.9249 15.371 36.9453 16.3805 36.9453 17.6212V24.0636Z" fill="#3498DB"/>
<path d="M22.7264 28.6351L25.8975 30.0322C26.2399 30.1832 26.6374 29.9225 26.6374 29.5497V26.0209C27.9744 24.461 28.7082 22.4842 28.7082 20.4308C28.7082 18.6226 28.1505 16.8911 27.0956 15.4233C26.6989 14.8709 25.8422 15.4866 26.2392 16.0389C27.1644 17.3262 27.6534 18.8449 27.6534 20.4308C27.6534 22.2916 26.9661 24.0812 25.7178 25.4699C25.6308 25.5667 25.5827 25.6923 25.5827 25.8224V28.7412L22.9635 27.5873C22.8407 27.533 22.7017 27.5279 22.5751 27.5726C21.7494 27.8648 20.883 28.0129 20 28.0129C15.7799 28.0129 12.3466 24.6116 12.3466 20.4308C12.3466 16.25 15.78 12.8486 20.0001 12.8486C21.5738 12.8486 23.0852 13.3179 24.3708 14.2057C24.9304 14.5922 25.5297 13.7244 24.97 13.3379C23.5075 12.3278 21.7888 11.7939 20.0001 11.7939C15.1984 11.7939 11.292 15.6684 11.292 20.4307C11.292 25.193 15.1984 29.0675 20.0001 29.0675C20.932 29.0675 21.848 28.9221 22.7264 28.6351Z" fill="#3498DB"/>
</svg>
