<svg width="41" height="40" viewBox="0 0 41 40" fill="none" xmlns="http://www.w3.org/2000/svg">
<path d="M18.4486 18.5035C18.4486 17.7575 18.4486 12.3778 18.4486 11.6176C18.4486 10.7256 17.6676 10 16.7076 10H4.95883C3.99886 10 3.21783 10.7257 3.21783 11.6177V18.0611V18.5133C2.71953 18.5791 2.33337 19.0056 2.33337 19.5215V22.1216C2.33337 22.4129 2.56941 22.6489 2.86071 22.6489C3.15202 22.6489 3.38806 22.4129 3.38806 22.1216V19.5582H4.51375V26.6759V28.9312H3.38806V24.5824C3.38806 24.2911 3.15202 24.0551 2.86071 24.0551C2.56941 24.0551 2.33337 24.2911 2.33337 24.5824V28.968C2.33337 29.5293 2.78998 29.9859 3.35135 29.9859H4.5506C5.11183 29.9859 5.5685 29.5293 5.5685 28.968V27.2032H16.3038V28.968C16.3038 29.5293 16.7604 29.9859 17.3217 29.9859H18.521C19.0823 29.9859 19.539 29.5293 19.539 28.968V19.5215C19.5387 19.0139 19.1598 18.5035 18.4486 18.5035ZM4.27251 11.6178C4.27251 11.3073 4.58041 11.0548 4.95883 11.0548H16.7077C17.0861 11.0548 17.3939 11.3073 17.3939 11.6177V16.3254C17.1251 16.1856 16.813 16.1051 16.4927 16.1051H14.9521V15.0892C14.9521 14.3871 14.3809 13.8158 13.6787 13.8158H8.19354C7.4914 13.8158 6.92018 14.3871 6.92018 15.0892V16.1051H5.1737C4.85638 16.1051 4.54237 16.1847 4.27251 16.3254V11.6178ZM13.8973 15.0892V16.1051H7.97479V15.0892C7.97479 14.9686 8.07295 14.8705 8.19347 14.8705H13.6786C13.7992 14.8705 13.8973 14.9686 13.8973 15.0892ZM16.3036 26.1486H5.56843V22.8715H16.3037V26.1486H16.3036ZM16.3036 21.8168H5.56843C5.56843 21.4334 5.56843 19.5124 5.56843 19.1292C5.56843 18.9701 5.69788 18.8407 5.85692 18.8407H16.0153C16.1744 18.8407 16.3038 18.9701 16.3038 19.1292C16.3036 19.5232 16.3036 21.4313 16.3036 21.8168ZM17.2069 18.5099C16.9799 18.0748 16.5228 17.786 16.0153 17.786H5.85685C5.35194 17.786 4.89365 18.0718 4.66513 18.5099C4.58955 18.5017 4.56297 18.5035 4.27251 18.5035V18.0611C4.27251 17.5641 4.67681 17.1598 5.1737 17.1598H16.4925C16.9895 17.1598 17.3938 17.5641 17.3938 18.0611V18.5035C17.326 18.5035 17.2742 18.5024 17.2069 18.5099ZM18.4841 28.9313H17.3583C17.3583 27.9211 17.3583 20.5649 17.3583 19.5582H18.4841V28.9313Z" fill="#3498DB"/>
<path d="M37.243 18.5035C37.243 17.7575 37.243 12.3778 37.243 11.6176C37.243 10.7256 36.4621 10 35.5021 10H34.3127C34.0214 10 33.7854 10.236 33.7854 10.5273C33.7854 10.8186 34.0214 11.0547 34.3127 11.0547H35.5021C35.8805 11.0547 36.1883 11.3072 36.1883 11.6176V16.3253C35.922 16.1868 35.6098 16.1051 35.287 16.1051H33.7464V15.0891C33.7464 14.387 33.1752 13.8158 32.4731 13.8158H26.988C26.2858 13.8158 25.7146 14.387 25.7146 15.0891V16.1051H23.9683C23.6521 16.1051 23.3385 16.1839 23.067 16.3253V11.6177C23.067 11.3073 23.3749 11.0547 23.7533 11.0547H31.8518C32.1431 11.0547 32.3791 10.8186 32.3791 10.5273C32.3791 10.236 32.1431 10 31.8518 10H23.7533C22.7933 10 22.0123 10.7257 22.0123 11.6177V18.0611V18.5133C21.514 18.5791 21.1278 19.0055 21.1278 19.5215V28.968C21.1278 29.5293 21.5844 29.986 22.1458 29.986H23.345C23.9063 29.986 24.363 29.5294 24.363 28.968V27.2033H35.0983V28.968C35.0983 29.5293 35.5549 29.986 36.1162 29.986H37.3154C37.8767 29.986 38.3334 29.5294 38.3334 28.968V19.5215C38.3332 19.0139 37.9543 18.5035 37.243 18.5035ZM26.7692 15.0892C26.7692 14.9686 26.8674 14.8705 26.9879 14.8705H32.473C32.5936 14.8705 32.6917 14.9687 32.6917 15.0892V16.1051H26.7692V15.0892ZM23.3083 28.9313H22.1825V19.5582H23.3083V28.9313ZM35.0981 26.1486H24.3629V22.6721H35.0981V26.1486ZM35.0981 21.6175H24.3629C24.3629 20.759 24.3629 19.9895 24.3629 19.1292C24.3629 18.9701 24.4922 18.8407 24.6513 18.8407H34.8097C34.9687 18.8407 35.0982 18.9701 35.0982 19.1292C35.0981 20.0084 35.0981 20.7332 35.0981 21.6175ZM36.0014 18.5099C35.7731 18.0723 35.3141 17.786 34.8097 17.786H24.6513C24.1489 17.786 23.689 18.0703 23.4596 18.5099C23.386 18.5016 23.3504 18.5035 23.0669 18.5035V18.0611C23.0669 17.5641 23.4712 17.1598 23.9682 17.1598H35.287C35.7839 17.1598 36.1882 17.5641 36.1882 18.0611V18.5035C36.1179 18.5035 36.0712 18.5023 36.0014 18.5099ZM37.2785 28.9313H36.1528C36.1528 27.8979 36.1528 20.663 36.1528 19.5582H37.2785V28.9313Z" fill="#3498DB"/>
</svg>
