<svg width="24" height="24" viewBox="0 0 24 24" fill="none" xmlns="http://www.w3.org/2000/svg">
<path d="M6.37921 17.613C6.52234 18.4034 6.68397 19.1933 6.87897 19.9764C5.73383 19.2419 4.75657 18.2615 4.01815 17.1134C4.80112 17.3098 5.59234 17.4738 6.37921 17.613Z" fill="#797979" stroke="#797979"/>
<path d="M17.6334 17.6129C18.4251 17.4734 19.2106 17.3091 19.9897 17.1124C19.2485 18.2661 18.2589 19.2501 17.0998 19.9946C17.3092 19.2068 17.4911 18.4127 17.6334 17.6129Z" fill="#797979" stroke="#797979"/>
<path d="M17.634 6.3695C17.4937 5.57552 17.3169 4.78665 17.1082 4.00734C18.2692 4.75178 19.2558 5.73949 19.999 6.90136C19.2174 6.69426 18.4298 6.51538 17.634 6.3695Z" fill="#797979" stroke="#797979"/>
<path d="M6.38716 6.37368C5.58674 6.51108 4.79245 6.69135 4.005 6.90011C4.74809 5.74312 5.72987 4.75494 6.88084 4.01418C6.686 4.79526 6.5256 5.58205 6.38716 6.37368Z" fill="#797979" stroke="#797979"/>
<path d="M14.8728 6.02492C12.9612 5.85169 11.0387 5.85169 9.12707 6.02494C9.35172 4.90342 9.62929 3.794 9.99273 2.72231C10.6478 2.58322 11.312 2.5 12 2.5C12.6826 2.5 13.3556 2.584 14.0077 2.72386C14.3711 3.80352 14.6484 4.90688 14.8728 6.02492Z" fill="#797979" stroke="#797979"/>
<path d="M6.59 15.4898C5.21 15.2398 3.85 14.9198 2.53 14.4698C2.45 14.4498 2.39 14.4598 2.31 14.4498C2.12 13.6598 2 12.8498 2 11.9998C2 11.1598 2.12 10.3398 2.31 9.55977C2.39 9.54977 2.45 9.54977 2.53 9.52977C3.86 9.08977 5.21 8.75977 6.59 8.50977C6.34 10.8298 6.34 13.1698 6.59 15.4898Z" fill="#797979"/>
<path d="M22 11.9998C22 12.8498 21.88 13.6598 21.69 14.4498C21.61 14.4598 21.55 14.4498 21.47 14.4698C20.14 14.9098 18.78 15.2398 17.41 15.4898C17.67 13.1698 17.67 10.8298 17.41 8.50977C18.78 8.75977 20.15 9.07977 21.47 9.52977C21.55 9.54977 21.61 9.55977 21.69 9.55977C21.88 10.3498 22 11.1598 22 11.9998Z" fill="#797979"/>
<path d="M15.49 17.4102C15.24 18.7902 14.92 20.1502 14.47 21.4702C14.45 21.5502 14.45 21.6102 14.44 21.6902C13.66 21.8802 12.84 22.0002 12 22.0002C11.15 22.0002 10.34 21.8802 9.55001 21.6902C9.54001 21.6102 9.55001 21.5502 9.53001 21.4702C9.09001 20.1402 8.76001 18.7902 8.51001 17.4102C9.67001 17.5402 10.83 17.6302 12 17.6302C13.17 17.6302 14.34 17.5402 15.49 17.4102Z" fill="#797979"/>
<path d="M15.7633 15.7633C13.2622 16.0789 10.7378 16.0789 8.23667 15.7633C7.92111 13.2622 7.92111 10.7378 8.23667 8.23667C10.7378 7.92111 13.2622 7.92111 15.7633 8.23667C16.0789 10.7378 16.0789 13.2622 15.7633 15.7633Z" fill="#797979"/>
</svg>
