<svg width="41" height="40" viewBox="0 0 41 40" fill="none" xmlns="http://www.w3.org/2000/svg">
<path d="M38.1075 14.1371C38.9576 15.1925 38.8338 16.8406 37.7672 17.7217C36.7884 18.5295 35.4279 18.3509 34.6524 17.387C31.1058 12.9798 26.0286 10.4521 20.7221 10.4521H20.642C15.3039 10.4774 10.221 13.0529 6.69555 17.5184C5.92282 18.4979 4.56088 18.6737 3.58635 17.8841C2.50073 17.0045 2.37698 15.3564 3.21089 14.301C7.47742 8.89889 13.7071 5.53305 20.6188 5.5H20.7193C24.0655 5.5 27.2977 6.27203 30.3268 7.79358C30.5869 7.92436 30.6917 8.24147 30.5609 8.50162C30.4302 8.76178 30.1138 8.86654 29.8536 8.73576C26.9729 7.28874 23.8995 6.55468 20.7193 6.55468H20.623C14.2759 6.58492 8.23047 9.64631 4.03846 14.9549C3.53643 15.5898 3.64893 16.577 4.24869 17.0628C4.769 17.4847 5.45947 17.382 5.86798 16.8652C9.59312 12.1459 14.9762 9.42412 20.6363 9.3974H20.7221C26.3492 9.3974 31.726 12.0686 35.4743 16.726C35.8885 17.2407 36.581 17.3335 37.0936 16.9102C37.6948 16.4138 37.7911 15.426 37.2862 14.7988C35.7366 12.8736 33.9359 11.2368 31.9341 9.93248C31.6901 9.77357 31.6212 9.44662 31.7801 9.20264C31.9391 8.95865 32.266 8.88975 32.51 9.04865C34.6052 10.4134 36.4882 12.1255 38.1075 14.1371Z" fill="#3498DB"/>
<path d="M32.3355 18.74C33.2742 19.8087 33.1441 21.5216 32.067 22.411C31.1346 23.1809 29.8163 23.0599 28.9979 22.1304C26.7915 19.6252 23.8489 18.2472 20.7067 18.2472C20.6898 18.2472 20.6729 18.2472 20.6561 18.2472C17.4948 18.2619 14.5452 19.6689 12.3508 22.2085C11.5415 23.1451 10.2239 23.2794 9.2859 22.5193L9.28449 22.5179C8.19817 21.6375 8.05403 19.9262 8.98145 18.8497C11.9402 15.415 16.0816 13.3169 20.6329 13.2951C25.2136 13.2746 29.3649 15.3551 32.3355 18.74ZM31.3941 21.5989C32.0163 21.0848 32.0888 20.0569 31.5431 19.4354C28.6631 16.1539 24.8156 14.3497 20.7038 14.3497C20.682 14.3497 20.6602 14.3497 20.6384 14.3497C16.5013 14.3694 12.6453 16.2115 9.78083 19.5373C9.51927 19.8411 9.3913 20.258 9.42927 20.6814C9.46583 21.0899 9.65497 21.4604 9.94817 21.6981C9.94817 21.6981 9.94817 21.6988 9.94887 21.6988L9.94958 21.6995C10.4432 22.0989 11.1175 22.0236 11.5527 21.5188C13.9496 18.745 17.1805 17.2087 20.6511 17.1925H20.7067C24.1562 17.1925 27.38 18.6972 29.7896 21.4338C30.2297 21.9335 30.9047 22.0032 31.3941 21.5989Z" fill="#3498DB"/>
<path d="M26.3695 23.2778C26.8997 23.7433 27.2041 24.4366 27.2041 25.1791C27.2041 25.9602 26.8757 26.6795 26.3034 27.152C25.4385 27.8664 24.2686 27.7975 23.4627 27.1008C22.9881 26.6901 22.4559 26.3927 21.88 26.2183C21.6009 26.1333 21.4434 25.8387 21.5285 25.5602C21.6128 25.2818 21.9075 25.1243 22.1859 25.2087C22.9038 25.4266 23.5662 25.7951 24.1526 26.3028C24.5871 26.6782 25.1812 26.7113 25.6319 26.3393C26.3091 25.7797 26.3224 24.6399 25.6734 24.0704C24.2377 22.8103 22.5129 22.1445 20.6869 22.1445H20.6531C18.8131 22.1529 17.0834 22.8356 15.649 24.1175C14.9951 24.7018 15.0429 25.8436 15.7123 26.3858C16.163 26.7506 16.7572 26.7183 17.1903 26.3358C17.8554 25.7494 18.6464 25.3324 19.4782 25.1314C19.7609 25.0625 20.0464 25.2369 20.1146 25.5195C20.1835 25.8029 20.0091 26.0876 19.7264 26.1566C19.0613 26.3176 18.425 26.653 17.8878 27.1269C17.0806 27.8392 15.9113 27.9046 15.0486 27.2049C13.8554 26.2389 13.8251 24.3341 14.9459 23.3314C16.5518 21.8956 18.5768 21.0998 20.6475 21.0898H20.6869C22.7428 21.0897 24.7615 21.8666 26.3695 23.2778Z" fill="#3498DB"/>
<path d="M20.6666 29.3691C22.1699 29.3691 23.3919 30.5961 23.3919 32.1036C23.3919 33.6118 22.1699 34.8381 20.6666 34.8381C19.164 34.8381 17.9413 33.6119 17.9413 32.1036C17.9413 30.5962 19.164 29.3691 20.6666 29.3691ZM22.3372 32.1036C22.3372 31.1776 21.5877 30.4238 20.6666 30.4238C19.7455 30.4238 18.996 31.1776 18.996 32.1036C18.996 33.0304 19.7455 33.7834 20.6666 33.7834C21.5877 33.7834 22.3372 33.0304 22.3372 32.1036Z" fill="#3498DB"/>
</svg>
